<svg width="204" height="90" viewBox="0 0 204 90" fill="none" xmlns="http://www.w3.org/2000/svg">
<path d="M111.273 56.0935C64.6585 45.6916 29.5725 53.1215 0 66V0H204V47.6729C172.322 62.3346 125.307 59.2252 111.273 56.0935Z" fill="#4D4D4D"/>
<path d="M106 64.6191C56.4 55.4191 14.6667 74.7858 0 85.6191V89.6191C40 63.6191 87.3333 62.1191 106 64.6191Z" fill="#4D4D4D"/>
<path d="M107 61.6188C60.5 51.1189 17.3333 65.9522 0 74.6188V80.1187C39.5 55.1189 89.5 58.7806 107 61.6188Z" fill="#4D4D4D"/>
<path d="M119.5 62.5C165.5 68 189 60.5 204 54.5V58.5C170.5 68.5 133.5 66 119.5 62.5Z" fill="#4D4D4D"/>
<path d="M119 65.5C157 73.5 191.5 67.5 204 62.5V67.5C164 76 130 68.5 119 65.5Z" fill="#4D4D4D"/>
</svg>
